<!DOCTYPE svg PUBLIC "-//W3C//DTD SVG 1.1//EN" "http://www.w3.org/Graphics/SVG/1.1/DTD/svg11.dtd">
<!-- Uploaded to: SVG Repo, www.svgrepo.com, Transformed by: SVG Repo Mixer Tools -->
<svg version="1.1" id="Layer_1" xmlns="http://www.w3.org/2000/svg" xmlns:xlink="http://www.w3.org/1999/xlink" viewBox="0 0 512 512" xml:space="preserve" width="129px" height="129px" fill="#000000">
<g id="SVGRepo_bgCarrier" stroke-width="0"/>
<g id="SVGRepo_tracerCarrier" stroke-linecap="round" stroke-linejoin="round"/>
<g id="SVGRepo_iconCarrier"> <path style="fill:#415E72;" d="M0,341.508V62.236c0.088-4.92,4.048-8.88,8.968-8.968h423.4c4.92,0.088,8.88,4.048,8.968,8.968 v279.28L0,341.508z"/> <g> <path style="fill:#CFDCE5;" d="M441.328,341.508v35.856c-0.088,4.92-4.048,8.88-8.968,8.968H8.968 c-4.912-0.088-8.88-4.048-8.968-8.96v-35.864L441.328,341.508L441.328,341.508z"/> <rect x="126.192" y="449.764" style="fill:#CFDCE5;" width="188.944" height="8.968"/> </g> <polygon style="fill:#AEC4CE;" points="283.416,449.772 157.912,449.772 166.88,386.332 274.456,386.332 "/> <rect x="17.928" y="71.196" style="fill:#FFFFFF;" width="405.472" height="252.384"/> <polygon style="fill:#94A7AF;" points="274.456,386.332 166.88,386.332 161.872,421.74 276.064,397.732 "/> <g> <path style="fill:#E04F5F;" d="M62.488,238.644L42.4,159.58h10.816l9.384,40c2.344,9.848,4.456,19.704,5.864,27.328h0.232 c1.296-7.856,3.752-17.24,6.456-27.448l10.56-39.888h10.672l9.6,40.128c2.232,9.384,4.344,18.768,5.512,27.096h0.232 c1.64-8.68,3.872-17.48,6.336-27.328l10.4-39.888h10.44l-22.4,79.072h-10.616l-9.968-41.176c-2.2-8.504-3.92-17.12-5.168-25.816 H90.52c-1.568,8.712-3.608,17.328-6.096,25.816L73.16,238.644H62.488z"/> <path style="fill:#E04F5F;" d="M163.592,238.644l-20.064-79.072h10.792l9.384,40c2.344,9.848,4.456,19.704,5.864,27.328h0.232 c1.296-7.856,3.752-17.24,6.456-27.448l10.56-39.888h10.672l9.6,40.128c2.232,9.384,4.344,18.768,5.512,27.096h0.232 c1.64-8.68,3.872-17.48,6.336-27.328l10.4-39.888h10.44l-22.4,79.072h-10.616l-9.968-41.168c-2.2-8.504-3.92-17.12-5.168-25.816 h-0.232c-1.568,8.712-3.608,17.328-6.096,25.816l-11.264,41.168L163.592,238.644L163.592,238.644z"/> </g> <path style="fill:#25B6D2;" d="M496.968,327.876L496.968,327.876l-39.512-39.472l-8.656-8.672 c-9.848-9.84-25.816-9.832-35.656,0.016s-9.832,25.816,0.024,35.656l0,0l14.968,14.952l0.056,0.072l15.2,15.152l33.016,32.992 L512,342.9L496.968,327.876z"/> <ellipse style="fill:#415E72;" cx="346.4" cy="213.068" rx="121.784" ry="121.704"/> <ellipse style="fill:#FFFFFF;" cx="346.4" cy="213.068" rx="112.48" ry="112.4"/> <path style="fill:#E81241;" d="M346.4,314.116c-55.808-0.04-101.016-45.312-100.976-101.12s45.312-101.016,101.12-100.976 c55.776,0.04,100.976,45.272,100.976,101.048C447.44,268.868,402.2,314.076,346.4,314.116z M346.4,116.012 c-53.6,0.04-97.016,43.52-96.976,97.12s43.52,97.016,97.12,96.976c53.568-0.04,96.968-43.472,96.976-97.04 C443.448,159.468,400,116.052,346.4,116.012L346.4,116.012z"/> <g> <path style="fill:#E04F5F;" d="M303.568,252.332l-23.336-92H292.8l10.92,46.536c2.728,11.464,5.176,22.928,6.824,31.8h0.272 c1.504-9.144,4.368-20.064,7.504-31.936l12.28-46.4h12.424l11.2,46.672c2.592,10.92,5.048,21.832,6.4,31.528h0.272 c1.912-10.104,4.504-20.336,7.368-31.808l12.152-46.4h12.152l-26.072,92h-12.432l-11.6-47.904 c-2.56-9.888-4.56-19.912-6.008-30.024h-0.272c-1.824,10.128-4.192,20.152-7.096,30.024L316,252.332H303.568z"/> <path style="fill:#E04F5F;" d="M393.224,245.244c-0.296-4.448,3.08-8.288,7.528-8.584c0.216-0.016,0.44-0.016,0.656-0.016 c4.752-0.232,8.784,3.424,9.024,8.176c0.232,4.752-3.424,8.784-8.176,9.024s-8.784-3.424-9.024-8.176 C393.224,245.524,393.224,245.388,393.224,245.244z"/> </g> </g>
</svg>